:version 1.10
:name ASF
:units
  mass 1
  length 1
  angle deg
:documentation
  ASF file generated by Kaydara
:root
  axis xyz
  order  tx ty tz rx ry rz
  position 0 0 0
  orientation 0 0 0
:bonedata
  begin
    id 1
    name RightUpLegDummy
    direction -0.65628 -0.754516 0.00165102
    length 4.76918
    axis 0 0 0 xyz
  end
  begin
    id 2
    name RightUpLeg
    direction -0.145584 -0.923362 0.355256
    length 17.9961
    axis -24.7611 -13.1006 1.78531 xyz
    dof rx ry rz
  end
  begin
    id 3
    name RightLeg
    direction 0.263379 0.172355 -0.949171
    length 13.3386
    axis 89.6202 -21.1929 12.3855 xyz
    dof rx ry rz
  end
  begin
    id 4
    name RightFoot
    direction 0.224283 -0.968777 -0.105675
    length 5.86697
    axis 56.995 -39.6905 17.3365 xyz
    dof rx ry rz
  end
  begin
    id 5
    name RightToes
    direction -0.0806345 -0.9037 0.420506
    length 4.75197
    axis 146.825 -39.7828 17.6019 xyz
    dof rx ry rz
  end
  begin
    id 6
    name SpineDummy
    direction -3.39852e-014 1 9.33296e-014
    length 8.13779
    axis 0 0 0 xyz
  end
  begin
    id 7
    name Spine
    direction -0.156609 0.733703 0.661176
    length 7.14978
    axis 41.2365 5.68757 17.0844 xyz
    dof rx ry rz
  end
  begin
    id 8
    name Spine1
    direction 0 0 0
    length 0
    axis 42.8809 47.8308 -3.36039 xyz
    dof rx ry rz
  end
  begin
    id 9
    name HEadDummy
    direction 0.546431 0.701947 0.456819
    length 3.55512
    axis 42.8809 47.8308 -3.36039 xyz
  end
  begin
    id 10
    name HEad
    direction 0.23444 0.828559 0.508457
    length 7.35827
    axis 51.1864 49.2662 27.4903 xyz
    dof rx ry rz
  end
  begin
    id 11
    name LeftShoulder1Dummy
    direction 0.431183 0.475873 -0.766568
    length 2.49352
    axis 42.8809 47.8308 -3.36039 xyz
  end
  begin
    id 12
    name LeftShoulder1
    direction 0.268187 -0.383402 -0.883786
    length 4.48604
    axis -119.517 0.106469 35.1736 xyz
    dof rx ry rz
  end
  begin
    id 13
    name LeftArm
    direction 0.380567 -0.703221 -0.600541
    length 10.1142
    axis -5.41825 36.2925 7.8293 xyz
    dof rx ry rz
  end
  begin
    id 14
    name LeftForeArm
    direction 0.541071 -0.732356 -0.413396
    length 9.39839
    axis 4.65387 33.7604 7.81644 xyz
    dof rx ry rz
  end
  begin
    id 15
    name LeftHand
    direction 0.847511 -0.389379 -0.360707
    length 3.66142
    axis 7.65593 21.1436 -24.6758 xyz
    dof rx ry rz
  end
  begin
    id 16
    name RightShoulderDummy
    direction -0.692546 0.541855 0.476208
    length 2.49352
    axis 42.8809 47.8308 -3.36039 xyz
  end
  begin
    id 17
    name RightShoulder
    direction -0.870808 -0.316653 0.376065
    length 4.48602
    axis 141.571 51.133 -100.254 xyz
    dof rx ry rz
  end
  begin
    id 18
    name RightArm
    direction 0.366897 -0.87275 0.322015
    length 10.1142
    axis 92.3258 71.2036 138.917 xyz
    dof rx ry rz
  end
  begin
    id 19
    name RightForeArm
    direction 0.702487 -0.694568 0.155197
    length 9.39835
    axis 153.863 41.5092 -176.604 xyz
    dof rx ry rz
  end
  begin
    id 20
    name RightHand
    direction 0.79502 -0.601276 0.0800636
    length 3.66142
    axis 154.247 4.59222 142.9 xyz
    dof rx ry rz
  end
  begin
    id 21
    name LeftUpLegDummy
    direction 0.65628 -0.754516 0.00165102
    length 4.76919
    axis 0 0 0 xyz
  end
  begin
    id 22
    name LeftUpLeg
    direction -0.1277 -0.689368 0.713067
    length 17.9961
    axis -48.3385 -17.8675 0.791927 xyz
    dof rx ry rz
  end
  begin
    id 23
    name LeftLeg
    direction 0.109849 -0.991246 -0.0732378
    length 13.3386
    axis -2.05791 -7.30784 1.72042 xyz
    dof rx ry rz
  end
  begin
    id 24
    name LeftFoot
    direction 0.0448355 -0.272614 0.961078
    length 5.86697
    axis -18.7733 -7.89606 10.2113 xyz
    dof rx ry rz
  end
  begin
    id 25
    name LeftToes
    direction -0.18506 0.293668 0.937823
    length 4.75197
    axis 71.2267 -7.89606 10.2113 xyz
    dof rx ry rz
  end
:hierarchy
  begin
    root RightUpLegDummy SpineDummy LeftUpLegDummy
    RightUpLegDummy RightUpLeg
    RightUpLeg RightLeg
    RightLeg RightFoot
    RightFoot RightToes
    SpineDummy Spine
    Spine Spine1
    Spine1 HEadDummy LeftShoulder1Dummy RightShoulderDummy
    HEadDummy HEad
    LeftShoulder1Dummy LeftShoulder1
    LeftShoulder1 LeftArm
    LeftArm LeftForeArm
    LeftForeArm LeftHand
    RightShoulderDummy RightShoulder
    RightShoulder RightArm
    RightArm RightForeArm
    RightForeArm RightHand
    LeftUpLegDummy LeftUpLeg
    LeftUpLeg LeftLeg
    LeftLeg LeftFoot
    LeftFoot LeftToes
  end

:SAMPLES-PER-SECOND 30
:FULLY-SPECIFIED
:DEGREES
433
root  -31.7443 33.2182 -17.1689 66.3521 -46.0452 67.8377
RightUpLeg  -35.5301 -13.3785 -42.5671
RightLeg  -95.0598 -11.376 -4.02734
RightFoot  14.855 3.31777 -12.3428
RightToes  -1.27222e-014 -6.36111e-015 6.36111e-015
Spine  -11.6976 -30.3908 -21.2414
Spine1  -33.8437 -12.8006 76.1151
HEad  -20.7305 -23.3155 3.97166
LeftShoulder1  6.36111e-015 -1.33558e-015 6.49777e-015
LeftArm  -46.0434 -40.8903 0.838066
LeftForeArm  -22.6452 26.7145 -3.51539
LeftHand  1.94451 8.92353 -9.04878
RightShoulder  -4.77083e-015 -6.36111e-015 -3.18055e-015
RightArm  -21.949 1.80934 -35.2642
RightForeArm  -12.4038 -20.7472 -6.64814
RightHand  24.4215 -12.3868 -72.2172
LeftUpLeg  14.5319 8.32735 64.7349
LeftLeg  -47.3792 6.74789 -18.6783
LeftFoot  21.8416 7.2379 -14.0595
LeftToes  1.27222e-014 1.09105e-011 6.96064e-012
434
root  -31.5237 33.4005 -15.8656 87.4163 -46.0975 42.419
RightUpLeg  -34.6537 -14.1782 -43.0715
RightLeg  -91.3248 -11.7999 -1.39962
RightFoot  15.2 3.13127 -12.1125
RightToes  -1.27222e-014 -6.36111e-015 6.36111e-015
Spine  -15.1192 -26.3682 -16.4081
Spine1  -30.0704 -14.9464 64.1322
HEad  -26.7799 -23.81 7.44238
LeftShoulder1  6.36111e-015 -1.33558e-015 6.49777e-015
LeftArm  -49.0628 -38.0189 2.49862
LeftForeArm  -24.2568 18.414 -4.60535
LeftHand  2.66806 7.90907 -2.52498
RightShoulder  -4.77083e-015 -6.36111e-015 -3.18055e-015
RightArm  -23.7362 -5.60242 -29.8551
RightForeArm  -15.9173 -21.8483 -5.81885
RightHand  23.7438 -13.7921 -67.8234
LeftUpLeg  16.6089 8.0266 62.3021
LeftLeg  -46.341 5.70117 -17.0771
LeftFoot  18.9028 8.02212 -16.5472
LeftToes  1.27222e-014 1.09105e-011 6.96064e-012
435
root  -30.7808 33.5237 -14.6612 102.837 -39.8271 19.5053
RightUpLeg  -32.5941 -14.1084 -45.3097
RightLeg  -91.1747 -12.5271 4.04316
RightFoot  13.9326 3.5891 -12.5835
RightToes  -1.27222e-014 -6.36111e-015 6.36111e-015
Spine  -15.9094 -21.2514 -10.0637
Spine1  -27.21 -17.1616 48.4837
HEad  -31.4822 -25.2974 10.2147
LeftShoulder1  6.36111e-015 -1.33558e-015 6.49777e-015
LeftArm  -55.1078 -33.0858 2.2758
LeftForeArm  -21.4862 9.54442 -4.44436
LeftHand  5.63065 11.9207 4.84052
RightShoulder  -4.77083e-015 -6.36111e-015 -3.18055e-015
RightArm  -25.3682 -15.5428 -23.6828
RightForeArm  -17.7045 -18.4249 -5.40587
RightHand  21.5409 -14.1849 -61.8861
LeftUpLeg  18.169 8.11054 59.7688
LeftLeg  -44.9002 0.861356 -12.3009
LeftFoot  15.617 9.12289 -20.1748
LeftToes  1.27222e-014 1.09105e-011 6.96064e-012
436
root  -29.4775 33.5623 -13.6041 109.915 -29.5569 0.39212
RightUpLeg  -31.1749 -12.9178 -48.2864
RightLeg  -94.5998 -12.5013 9.72399
RightFoot  12.513 3.7515 -12.522
RightToes  -1.27222e-014 -6.36111e-015 6.36111e-015
Spine  -12.2426 -14.4365 -2.68445
Spine1  -25.0755 -17.9619 29.8809
HEad  -34.3822 -28.8674 11.0808
LeftShoulder1  6.36111e-015 -1.33558e-015 6.49777e-015
LeftArm  -58.8757 -29.0517 -0.22342
LeftForeArm  -18.6781 5.54441 -3.33558
LeftHand  10.806 19.3332 11.4885
RightShoulder  -4.77083e-015 -6.36111e-015 -3.18055e-015
RightArm  -27.6888 -22.7607 -17.5345
RightForeArm  -16.5115 -19.2025 -5.71062
RightHand  22.1985 -15.2395 -61.44
LeftUpLeg  19.9537 8.51221 57.7801
LeftLeg  -42.3459 -5.407 -6.6705
LeftFoot  12.739 10.3801 -24.4434
LeftToes  1.27222e-014 1.09105e-011 6.96064e-012
437
root  -27.611 33.1989 -12.9588 110.579 -18.4379 -16.715
RightUpLeg  -32.9315 -12.0116 -51.151
RightLeg  -99.7304 -11.1354 12.0351
RightFoot  12.7028 4.28794 -13.5218
RightToes  -1.27222e-014 -6.36111e-015 6.36111e-015
Spine  -5.79578 -7.07562 4.10148
Spine1  -22.6313 -16.3478 10.7736
HEad  -37.1459 -35.0511 12.6263
LeftShoulder1  6.36111e-015 -1.33558e-015 6.49777e-015
LeftArm  -58.5384 -29.7541 -0.753908
LeftForeArm  -15.4038 4.80444 -1.58557
LeftHand  13.2507 20.9452 16.5212
RightShoulder  -4.77083e-015 -6.36111e-015 -3.18055e-015
RightArm  -23.2679 -18.0062 -14.1175
RightForeArm  -16.3591 -31.532 -8.44097
RightHand  23.3332 -17.6177 -59.7615
LeftUpLeg  21.5909 9.60093 55.9586
LeftLeg  -37.1125 -12.293 -1.8982
LeftFoot  10.1522 10.9263 -27.3224
LeftToes  1.27222e-014 1.09105e-011 6.96064e-012
438
root  -25.6402 32.1185 -12.9575 105.742 -8.39746 -32.6562
RightUpLeg  -37.1846 -14.0895 -51.0881
RightLeg  -104.918 -11.1809 7.77043
RightFoot  14.0046 5.78451 -16.4143
RightToes  -1.27222e-014 -6.36111e-015 6.36111e-015
Spine  0.633974 -0.256963 9.83887
Spine1  -18.4473 -11.9857 -5.50339
HEad  -42.2907 -41.7654 18.4675
LeftShoulder1  6.36111e-015 -1.33558e-015 6.49777e-015
LeftArm  -56.0603 -36.7188 1.02167
LeftForeArm  -11.2499 6.3575 0.0824138
LeftHand  11.3989 17.4119 16.947
RightShoulder  -4.77083e-015 -6.36111e-015 -3.18055e-015
RightArm  -16.1354 -13.2697 -15.1824
RightForeArm  -15.5404 -34.9549 -6.87392
RightHand  18.8194 -18.9133 -46.8136
LeftUpLeg  23.9814 11.861 54.329
LeftLeg  -32.5151 -19.8611 2.67908
LeftFoot  8.83915 11.3612 -29.3005
LeftToes  1.27222e-014 1.09105e-011 6.96064e-012
